<svg xmlns="http://www.w3.org/2000/svg" viewBox="0 0 128 128" fill="#6366f1">
  <path d="M64 8C33.07 8 8 33.07 8 64s25.07 56 56 56 56-25.07 56-56S94.93 8 64 8zm-4.2 100.47c-22.18-2.74-39.2-21.58-39.2-44.31 0-3.44.48-6.8 1.2-10l26.4 26.57v5.6c0 6.19 5.01 11.2 11.2 11.2v10.94zm38.73-14.25c-1.46-4.56-5.6-7.82-10.64-7.82h-5.6V68.88c0-3.08-2.52-5.6-5.6-5.6H43.68v-11.2h11.2c3.08 0 5.6-2.52 5.6-5.6V35.28h11.2c6.19 0 11.2-5.01 11.2-11.2v-2.33c16.4 6.64 28 22.71 28 41.53 0 11.67-4.48 22.23-11.95 30.21z"/>
</svg>
